{"title":"The.Perfect.Host.2010.480p.BRRip.XviD.Ac3.Feel-Free","uid":6615989,"size":1088840996,"categoryP":"video","categoryS":"movies","magnet":"?xt=urn:btih:6d0d1c25665cb027bf96d570699a8a8042ef8995&amp;dn=The.Perfect.Host.2010.480p.BRRip.XviD.Ac3.Feel-Free&amp;tr=udp%3A%2F%2Ftracker.openbittorrent.com%3A80&amp;tr=udp%3A%2F%2Fopen.demonii.com%3A1337&amp;tr=udp%3A%2F%2Ftracker.coppersurfer.tk%3A6969&amp;tr=udp%3A%2F%2Fexodus.desync.com%3A6969","seeders":0,"leechers":0,"uploader":"SnowCrash03","files":-1,"time":1313782199,"description":"Genre:Crime | Drama | Thriller\n Language:English\n IMDb:http://www.imdb.com/title/tt1334553/\n Source:720p.BluRay.x264-aAF Thanks!\n \nFormat : AVI\n Format/Info : Audio Video Interleave\n File size : 1.01 GiB\n Duration : 1h 32mn\n Overall bit rate : 1 565 Kbps\n \nVideo\n ID : 0\n Format : MPEG-4 Visual\n Format profile : Advanced Simple@L5\n Format settings, BVOP : Yes\n Format settings, QPel : No\n Format settings, GMC : No warppoints\n Format settings, Matrix : Default (H.263)\n Codec ID : XVID\n Codec ID/Hint : XviD\n Duration : 1h 32mn\n Bit rate : 1 107 Kbps\n Width : 640 pixels\n Height : 360 pixels\n Display aspect ratio : 16:9\n Frame rate : 23.976 fps\n Color space : YUV\n Chroma subsampling : 4:2:0\n Bit depth : 8 bits\n Scan type : Progressive\n Bits/(Pixel*Frame) : 0.200\n Stream size : 734 MiB (71%)\n Writing library : XviD 1.2.1 (UTC 2008-12-04)\n \nAudio\n ID : 1\n Format : AC-3\n Format/Info : Audio Coding 3\n Mode extension : CM (complete main)\n Codec ID : 2000\n Duration : 1h 32mn\n Bit rate mode : Constant\n Bit rate : 448 Kbps\n Channel(s) : 6 channels\n Channel positions : Front: L C R, Side: L R, LFE\n Sampling rate : 48.0 KHz\n Bit depth : 16 bits\n Stream size : 297 MiB (29%)\n Alignment : Aligned on interleaves\n Interleave, duration : 42 ms (1.00 video frame)\n Interleave, preload duration : 512 ms\n \n\nPlot:\n A criminal on the run cons his way into the wrong dinner party where the host is anything but ordinary.\n ","torrent":{"xt":"urn:btih:6d0d1c25665cb027bf96d570699a8a8042ef8995","amp;dn":"The.Perfect.Host.2010.480p.BRRip.XviD.Ac3.Feel-Free","amp;tr":["udp%3A%2F%2Ftracker.openbittorrent.com%3A80","udp%3A%2F%2Fopen.demonii.com%3A1337","udp%3A%2F%2Ftracker.coppersurfer.tk%3A6969","udp%3A%2F%2Fexodus.desync.com%3A6969"],"infoHash":"6d0d1c25665cb027bf96d570699a8a8042ef8995","infoHashBuffer":{"type":"Buffer","data":[109,13,28,37,102,92,176,39,191,150,213,112,105,154,138,128,66,239,137,149]},"announce":[],"urlList":[]}}